<?xml version="1.0" encoding="UTF-8" standalone="no"?>
<svg
   viewBox="0 0 511.98969 512.00531"
   version="1.1"
   id="svg4"
   sodipodi:docname="brush-icon.svg"
   width="511.98969"
   height="512.00531"
   inkscape:version="1.2.2 (732a01da63, 2022-12-09)"
   xmlns:inkscape="http://www.inkscape.org/namespaces/inkscape"
   xmlns:sodipodi="http://sodipodi.sourceforge.net/DTD/sodipodi-0.dtd"
   xmlns="http://www.w3.org/2000/svg"
   xmlns:svg="http://www.w3.org/2000/svg">
  <defs
     id="defs8" />
  <sodipodi:namedview
     id="namedview6"
     pagecolor="#ffffff"
     bordercolor="#000000"
     borderopacity="0.25"
     inkscape:showpageshadow="2"
     inkscape:pageopacity="0.0"
     inkscape:pagecheckerboard="0"
     inkscape:deskcolor="#d1d1d1"
     showgrid="false"
     inkscape:zoom="0.79492188"
     inkscape:cx="68.560197"
     inkscape:cy="227.69533"
     inkscape:window-width="1920"
     inkscape:window-height="1001"
     inkscape:window-x="-9"
     inkscape:window-y="-9"
     inkscape:window-maximized="1"
     inkscape:current-layer="svg4" />
  <path
     d="m 175.2,288.90529 c -24.31,2.156 -46.98,12.2 -64.38,29.7 -22.4,22.51 -32.32,52.9 -29.74,82.38 2.254,25.82 -16.99,46.1 -49.03,46.1 -17.71,0.92 -32.05,15.22 -32.05,32.92 0,17.7 14.34,32 32.04,32 h 53.78 c 54.59,0 133.2,-7.568 172.3,-46.92 23.67,-23.82 32.49,-56.36 28.19,-87.39 z M 499.5,17.465292 C 490.521,7.1852923 478.1,1.0252923 464.49,0.13529232 c -13.55,-1 -26.72,3.57799998 -36.92,12.58999968 L 222.3,193.70529 c -6.5,5.7 -12.2,12.5 -16.6,19.4 -9.459,14.95 -13.76,31.67 -13.78,48.2 l 110.3,88.18 c 23.03,-5.436 42.71,-19.34 55.41,-39.44 L 504.03,78.445292 c 12.17,-18.95 10.17,-44.04 -4.53,-60.98 z"
     id="path2" />
</svg>
