<?xml version="1.0" encoding="UTF-8" standalone="no"?>
<svg
   enable-background="new 0 0 512 512"
   height="492.91"
   id="Layer_1"
   version="1.1"
   viewBox="0 0 492.91 492.91"
   width="492.91"
   xml:space="preserve"
   sodipodi:docname="email-icon.svg"
   inkscape:version="1.2.2 (732a01da63, 2022-12-09)"
   xmlns:inkscape="http://www.inkscape.org/namespaces/inkscape"
   xmlns:sodipodi="http://sodipodi.sourceforge.net/DTD/sodipodi-0.dtd"
   xmlns="http://www.w3.org/2000/svg"
   xmlns:svg="http://www.w3.org/2000/svg"><defs
     id="defs1624" /><sodipodi:namedview
     id="namedview1622"
     pagecolor="#ffffff"
     bordercolor="#000000"
     borderopacity="0.25"
     inkscape:showpageshadow="2"
     inkscape:pageopacity="0.0"
     inkscape:pagecheckerboard="0"
     inkscape:deskcolor="#d1d1d1"
     showgrid="false"
     inkscape:zoom="1.1241893"
     inkscape:cx="225.49583"
     inkscape:cy="297.99252"
     inkscape:window-width="1920"
     inkscape:window-height="1001"
     inkscape:window-x="-9"
     inkscape:window-y="-9"
     inkscape:window-maximized="1"
     inkscape:current-layer="Layer_1" /><g
     id="g1615"
     transform="translate(-9.5439911,-9.5449982)" /><g
     id="Page-1"
     transform="translate(-9.5439911,-9.5449982)"><g
       id="Icons-Communication"
       transform="translate(0,-85)"><g
         id="gmail"
         transform="translate(0,85)"><path
           id="Shape"
           d="M 384,128 H 128 c -17.602,0 -32,14.406 -32,32 v 192 c 0,17.594 14.398,32 32,32 h 256 c 17.594,0 32,-14.406 32,-32 V 160 c 0,-17.594 -14.406,-32 -32,-32 z m 0,224 H 352 V 211.203 L 256,272 160,211.203 V 352 H 128 V 160 h 19.203 L 256,227.203 364.797,160 H 384 Z M 502.45399,256 A 246.455,246.455 0 0 1 255.99899,502.455 246.455,246.455 0 0 1 9.5439911,256 246.455,246.455 0 0 1 255.99899,9.5449982 246.455,246.455 0 0 1 502.45399,256 Z" /></g></g></g></svg>
