<?xml version="1.0" encoding="UTF-8" standalone="no"?>
<svg
   enable-background="new 0 0 144.083 144"
   height="31"
   id="Facebook"
   version="1.1"
   viewBox="0 0 31.000003 31"
   width="31"
   xml:space="preserve"
   sodipodi:docname="fb-icon.svg"
   inkscape:version="1.2.2 (732a01da63, 2022-12-09)"
   xmlns:inkscape="http://www.inkscape.org/namespaces/inkscape"
   xmlns:sodipodi="http://sodipodi.sourceforge.net/DTD/sodipodi-0.dtd"
   xmlns="http://www.w3.org/2000/svg"
   xmlns:svg="http://www.w3.org/2000/svg"><defs
     id="defs1490" /><sodipodi:namedview
     id="namedview1488"
     pagecolor="#ffffff"
     bordercolor="#000000"
     borderopacity="0.25"
     inkscape:showpageshadow="2"
     inkscape:pageopacity="0.0"
     inkscape:pagecheckerboard="0"
     inkscape:deskcolor="#d1d1d1"
     showgrid="false"
     inkscape:zoom="5.6527778"
     inkscape:cx="3.4496314"
     inkscape:cy="21.405405"
     inkscape:window-width="1920"
     inkscape:window-height="1001"
     inkscape:window-x="-9"
     inkscape:window-y="-9"
     inkscape:window-maximized="1"
     inkscape:current-layer="Facebook" /><path
     d="M 15.499732,0 C 6.9395423,0 0,6.9396903 0,15.499732 0,24.059506 6.9395423,31 15.499732,31 24.059922,31 31,24.059774 31,15.499732 30.999732,6.9396903 24.059922,0 15.499732,0 Z m 5.293435,9.9148007 c 0,0.1479383 -0.1198,0.2680043 -0.268009,0.2680043 h -3.773291 v 2.027985 h 3.773023 c 0.148209,0 0.268009,0.120065 0.268009,0.268004 v 3.772689 c 0,0.148205 -0.1198,0.268003 -0.268009,0.268003 h -3.505014 v 8.279174 c 0,0.148206 -0.1198,0.268004 -0.268009,0.268004 h -3.565851 c -0.14821,0 -0.268009,-0.119798 -0.268009,-0.268004 v -8.278906 h -2.443433 c -0.148209,0 -0.268008,-0.119798 -0.268008,-0.268003 v -3.772689 c 0,-0.147939 0.119799,-0.268005 0.268008,-0.268005 h 2.443433 v -1.529766 c 0,-0.02197 0.0027,-0.04315 0.0075,-0.06351 0.0021,-2.1791396 0.46821,-4.6721102 4.038351,-4.6833668 0.0078,-5.359e-4 0.01608,-0.00103 0.02412,-0.00103 h 3.536907 c 0.148209,0 0.268009,0.1200658 0.268009,0.2680034 v 3.713461 z"
     id="path1485"
     style="stroke-width:0.268007" /></svg>
