<?xml version="1.0" encoding="UTF-8" standalone="no"?>
<svg
   id="Capa_1"
   version="1.1"
   viewBox="0 0 445.9723 432.50001"
   xml:space="preserve"
   sodipodi:docname="illustrator-icon.svg"
   width="445.97229"
   height="432.5"
   inkscape:version="1.2.2 (732a01da63, 2022-12-09)"
   xmlns:inkscape="http://www.inkscape.org/namespaces/inkscape"
   xmlns:sodipodi="http://sodipodi.sourceforge.net/DTD/sodipodi-0.dtd"
   xmlns="http://www.w3.org/2000/svg"
   xmlns:svg="http://www.w3.org/2000/svg"><defs
     id="defs1237" /><sodipodi:namedview
     id="namedview1235"
     pagecolor="#ffffff"
     bordercolor="#000000"
     borderopacity="0.25"
     inkscape:showpageshadow="2"
     inkscape:pageopacity="0.0"
     inkscape:pagecheckerboard="0"
     inkscape:deskcolor="#d1d1d1"
     showgrid="false"
     inkscape:zoom="1.33114"
     inkscape:cx="159.63761"
     inkscape:cy="241.14669"
     inkscape:window-width="1920"
     inkscape:window-height="1001"
     inkscape:window-x="-9"
     inkscape:window-y="-9"
     inkscape:window-maximized="1"
     inkscape:current-layer="Capa_1" /><path
     d="m 445.5862,297.9 c -1.3,-7.7 -5.5,-14.5 -11.9,-19.1 -6.4,-4.6 -14.2,-6.4 -21.9,-5.1 -16,2.7 -26.8,17.8 -24.2,33.8 0.6,3.8 2,7.3 3.9,10.5 -22.5,21 -69.6,55 -139.5,57.6 -1.3,-4 -3.5,-7.6 -6.3,-10.7 l 68.2,-102.6 c 8.3,-12.5 10.4,-27.8 5.8,-42 l -37.8,-117 c 21.9,-2.2 39,-20.6 39,-43 v -17 c 0,-23.9 -19.4,-43.3 -43.3,-43.3 h -103.4 c -23.9,0 -43.3,19.4 -43.3,43.3 v 17 c 0,20.9 14.9,38.4 34.6,42.4 l -38.1,117.6 c -4.6,14.2 -2.5,29.6 5.8,42 l 68.7,103.4 c -1.6,1.9 -3,3.9 -4.1,6.1 -84.2,-11.1 -118,-3.8 -148.4,9.8 -0.9,-0.8 -1.9,-1.6 -2.9,-2.4 -6.4,-4.6 -14.2,-6.4 -21.9,-5.1 C 8.5862002,376.8 -2.2137998,391.9 0.38620024,407.9 1.6862002,415.6 5.8862002,422.4 12.2862,427 c 5,3.6 10.9,5.5 17,5.5 1.6,0 3.3,-0.1 4.9,-0.4 15,-2.5 25.4,-16 24.5,-30.8 27.6,-12.1 57.9,-18.6 137.2,-7.9 1.9,6.2 5.7,11.6 11,15.5 5,3.6 10.9,5.5 17,5.5 1.6,0 3.3,-0.1 4.9,-0.4 9.9,-1.6 17.8,-8.1 21.8,-16.6 51.3,-1.5 90.8,-18.4 117,-34.3 18.2,-11.1 32,-22.8 41.4,-31.9 2.4,0.6 4.9,1 7.4,1 1.6,0 3.3,-0.1 4.9,-0.4 16.1,-2.8 26.9,-18 24.3,-33.9 z m -414.8,112.8 c -2,0.3 -4.1,-0.1 -5.8,-1.3 -1.7,-1.2 -2.8,-3 -3.1,-5 -0.2,-1.5 -0.1,-2.9 0.5,-4.3 0.2,-0.5 0.5,-1 0.8,-1.5 1.2,-1.7 3,-2.8 5,-3.1 0.4,-0.1 0.9,-0.1 1.3,-0.1 1.6,0 3.2,0.5 4.5,1.4 1.7,1.2 2.8,3 3.1,5 0.3,2 -0.1,4.1 -1.3,5.8 -1.1,1.6 -2.7,2.6 -4.6,3 -0.2,0 -0.3,0.1 -0.4,0.1 z m 197.8,-32.1 c 1.7,1.2 2.8,3 3.1,5 0.3,2 -0.1,4.1 -1.3,5.8 -1.2,1.7 -3,2.8 -5,3.1 -2,0.3 -4.1,-0.1 -5.8,-1.3 -1.7,-1.2 -2.8,-3 -3.1,-5 -0.3,-2 0.1,-4.1 1.3,-5.8 1.1,-1.5 2.6,-2.5 4.4,-3 h 4 c 0.8,0.2 1.7,0.6 2.4,1.2 z m -3.9,-139.9 c -3.4,0 -6.2,-2.8 -6.2,-6.2 0,-3.4 2.8,-6.2 6.2,-6.2 3.4,0 6.2,2.8 6.2,6.2 0,3.4 -2.8,6.2 -6.2,6.2 z m -72.2,-178.5 v -17 c 0,-11.9 9.7,-21.6 21.6,-21.6 h 103.3 c 11.9,0 21.6,9.7 21.6,21.6 v 17 c 0,11.9 -9.7,21.6 -21.6,21.6 h -103.2 c -12,0 -21.7,-9.7 -21.7,-21.6 z m -4.4,166.7 39.9,-123.4 h 71.1 l 39.9,123.4 c 2.6,7.9 1.4,16.5 -3.2,23.4 l -61.4,92.4 v -84.2 c 10.6,-3.9 18.2,-14.1 18.2,-26.1 0,-15.4 -12.5,-27.9 -27.9,-27.9 -15.4,0 -27.9,12.5 -27.9,27.9 0,11.1 6.5,20.6 15.9,25.1 v 85.2 l -61.4,-92.4 c -4.6,-6.9 -5.8,-15.5 -3.2,-23.4 z m 274.8,80.3 c -1.1,1.6 -2.8,2.6 -4.7,3 -0.1,0 -0.2,0.1 -0.4,0.1 -2,0.3 -4.1,-0.1 -5.8,-1.3 -1.7,-1.2 -2.8,-3 -3.1,-5 0,-0.2 0,-0.5 0,-0.7 -0.1,-1.8 0.3,-3.6 1.4,-5 1.2,-1.7 3,-2.8 5,-3.1 0.4,-0.1 0.9,-0.1 1.3,-0.1 1.6,0 3.2,0.5 4.5,1.4 1.7,1.2 2.8,3 3.1,5 0.4,1.9 -0.1,4 -1.3,5.7 z"
     id="path1232" /></svg>
