<?xml version="1.0" encoding="UTF-8" standalone="no"?>
<svg
   width="31"
   height="31"
   viewBox="0 0 31 31"
   fill="none"
   version="1.1"
   id="svg1759"
   sodipodi:docname="Instagram-icon.svg"
   inkscape:version="1.2.2 (732a01da63, 2022-12-09)"
   xmlns:inkscape="http://www.inkscape.org/namespaces/inkscape"
   xmlns:sodipodi="http://sodipodi.sourceforge.net/DTD/sodipodi-0.dtd"
   xmlns="http://www.w3.org/2000/svg"
   xmlns:svg="http://www.w3.org/2000/svg">
  <defs
     id="defs1763" />
  <sodipodi:namedview
     id="namedview1761"
     pagecolor="#ffffff"
     bordercolor="#000000"
     borderopacity="0.25"
     inkscape:showpageshadow="2"
     inkscape:pageopacity="0.0"
     inkscape:pagecheckerboard="0"
     inkscape:deskcolor="#d1d1d1"
     showgrid="false"
     inkscape:zoom="11.991353"
     inkscape:cx="12.967678"
     inkscape:cy="28.020191"
     inkscape:window-width="1920"
     inkscape:window-height="1001"
     inkscape:window-x="-9"
     inkscape:window-y="-9"
     inkscape:window-maximized="1"
     inkscape:current-layer="svg1759" />
  <path
     fill-rule="evenodd"
     clip-rule="evenodd"
     d="M 0,15.5 C 0,6.9396083 6.9396083,0 15.5,0 24.060392,0 31,6.9396083 31,15.5 31,24.060392 24.060392,31 15.5,31 6.9396083,31 0,24.060392 0,15.5 Z M 15.500775,7.2333333 c -2.24511,0 -2.526887,0.00982 -3.408644,0.049923 -0.880077,0.0403 -1.480766,0.1796709 -2.00641,0.3840771 -0.5437272,0.2111229 -1.0049168,0.4936105 -1.4644272,0.95325 -0.4598334,0.4595105 -0.7423209,0.9207 -0.9541542,1.4642336 -0.2049229,0.525837 -0.3444229,1.12672 -0.3840125,2.00641 -0.03946,0.881821 -0.049794,1.163727 -0.049794,3.408838 0,2.24511 0.01001,2.526047 0.049923,3.407804 0.040494,0.880077 0.1798,1.480766 0.384077,2.00641 0.2113167,0.543727 0.4937396,1.004917 0.9534438,1.464427 0.4593167,0.459834 0.9205062,0.742967 1.4639111,0.954154 0.525966,0.204407 1.12685,0.343713 2.006733,0.384013 0.881821,0.04017 1.163404,0.04999 3.408321,0.04999 2.245304,0 2.526177,-0.0098 3.407998,-0.04999 0.880012,-0.0403 1.481412,-0.179606 2.007443,-0.384013 0.543534,-0.211187 1.004013,-0.49432 1.463329,-0.954154 0.459834,-0.45951 0.742321,-0.9207 0.954155,-1.464233 0.203243,-0.525838 0.342743,-1.126721 0.384077,-2.006411 0.03959,-0.88182 0.04992,-1.162887 0.04992,-3.407997 0,-2.245111 -0.01033,-2.526823 -0.04992,-3.408644 C 23.67541,11.211344 23.53591,10.610654 23.332667,10.08501 23.120833,9.5412833 22.838346,9.0800938 22.378512,8.6205833 21.918679,8.16075 21.458846,7.8783271 20.914667,7.6673333 20.387602,7.4629271 19.78659,7.3235563 18.906513,7.2832563 18.024692,7.24315 17.744012,7.2333333 15.498192,7.2333333 Z"
     fill="#000000"
     id="path1753"
     style="stroke-width:0.645834" />
  <path
     fill-rule="evenodd"
     clip-rule="evenodd"
     d="m 14.759165,8.7230771 c 0.2201,-3.229e-4 0.46571,0 0.74161,0 2.2072,0 2.468827,0.00794 3.340444,0.047533 0.806,0.036877 1.243487,0.1715334 1.534887,0.2846834 0.385756,0.1498333 0.660817,0.3289229 0.949957,0.6182562 0.289333,0.2893333 0.468487,0.5649103 0.618643,0.9507313 0.11315,0.291013 0.248,0.7285 0.284684,1.5345 0.03959,0.871423 0.04824,1.133244 0.04824,3.339411 0,2.206166 -0.0087,2.467987 -0.04824,3.33941 -0.03688,0.806 -0.171534,1.243488 -0.284684,1.5345 -0.149833,0.385821 -0.32931,0.660494 -0.618643,0.949698 -0.289334,0.289333 -0.564007,0.468423 -0.949957,0.618256 -0.291077,0.113667 -0.728887,0.248 -1.534887,0.284877 -0.871423,0.03959 -1.133244,0.04818 -3.340444,0.04818 -2.207394,0 -2.469021,-0.0086 -3.340444,-0.04818 -0.806,-0.0372 -1.243487,-0.171921 -1.535016,-0.285071 C 10.239494,21.790029 9.9639167,21.61094 9.6745833,21.321606 9.38525,21.032273 9.2061604,20.757406 9.0560042,20.371456 c -0.11315,-0.291077 -0.248,-0.7285 -0.2846834,-1.5345 -0.039654,-0.871487 -0.047533,-1.133243 -0.047533,-3.340831 0,-2.207587 0.00788,-2.467987 0.047533,-3.33941 0.036812,-0.806 0.1715334,-1.243488 0.2846834,-1.534888 C 9.2058375,10.236071 9.38525,9.9604938 9.6745833,9.6711604 9.9639167,9.3818271 10.239494,9.2027375 10.625315,9.0525167 c 0.2914,-0.1136667 0.729016,-0.248 1.535016,-0.2850063 0.7626,-0.034423 1.058134,-0.044756 2.598834,-0.0465 z m 5.154331,1.3725899 c -0.547667,0 -0.992,0.443881 -0.992,0.991677 0,0.547666 0.444333,0.992 0.992,0.992 0.547667,0 0.992,-0.444334 0.992,-0.992 0,-0.547667 -0.444333,-0.991677 -0.992,-0.991677 z m -4.412721,1.159077 c -2.344504,0 -4.245321,1.900881 -4.245321,4.245321 0,2.344504 1.900817,4.244481 4.245321,4.244481 2.344504,0 4.24461,-1.899977 4.24461,-4.244481 0,-2.34444 -1.900106,-4.245321 -4.24461,-4.245321 z"
     fill="#000000"
     id="path1755"
     style="stroke-width:0.645834" />
  <path
     fill-rule="evenodd"
     clip-rule="evenodd"
     d="m 15.500775,12.744488 c 1.521777,0 2.755577,1.23367 2.755577,2.755577 0,1.521777 -1.2338,2.755577 -2.755577,2.755577 -1.521971,0 -2.755577,-1.2338 -2.755577,-2.755577 0,-1.521907 1.233606,-2.755577 2.755577,-2.755577 z"
     fill="#000000"
     id="path1757"
     style="stroke-width:0.645834" />
</svg>
