<?xml version="1.0" encoding="UTF-8" standalone="no"?>
<svg
   viewBox="0 0 86 85.999886"
   version="1.1"
   id="svg17"
   sodipodi:docname="paint-roller.svg"
   width="86"
   height="85.999886"
   inkscape:version="1.2.2 (732a01da63, 2022-12-09)"
   xmlns:inkscape="http://www.inkscape.org/namespaces/inkscape"
   xmlns:sodipodi="http://sodipodi.sourceforge.net/DTD/sodipodi-0.dtd"
   xmlns="http://www.w3.org/2000/svg"
   xmlns:svg="http://www.w3.org/2000/svg">
  <defs
     id="defs21" />
  <sodipodi:namedview
     id="namedview19"
     pagecolor="#ffffff"
     bordercolor="#000000"
     borderopacity="0.25"
     inkscape:showpageshadow="2"
     inkscape:pageopacity="0.0"
     inkscape:pagecheckerboard="0"
     inkscape:deskcolor="#d1d1d1"
     showgrid="false"
     inkscape:zoom="6.5407377"
     inkscape:cx="28.819379"
     inkscape:cy="52.746344"
     inkscape:window-width="1920"
     inkscape:window-height="1001"
     inkscape:window-x="-9"
     inkscape:window-y="-9"
     inkscape:window-maximized="1"
     inkscape:current-layer="svg17" />
  <title
     id="title2" />
  <g
     data-name="Paint Roller"
     id="Paint_Roller"
     transform="translate(-1,-1)">
    <rect
       height="22"
       rx="1"
       ry="1"
       width="62"
       x="7"
       y="1"
       id="rect4" />
    <path
       d="m 1,7 v 10 a 1.0029,1.0029 0 0 0 1,1 H 5 V 6 H 2 A 1.0029,1.0029 0 0 0 1,7 Z"
       id="path6" />
    <path
       d="M 75,17 V 7 A 1.0029,1.0029 0 0 0 74,6 h -3 v 12 h 3 a 1.0029,1.0029 0 0 0 1,-1 z"
       id="path8" />
    <circle
       cx="38"
       cy="76"
       r="3"
       id="circle10" />
    <path
       d="M 45.3755,47.7949 A 3.0082,3.0082 0 0 0 42.3828,45 h -8.7656 a 3.0082,3.0082 0 0 0 -2.9927,2.7949 L 28.62,76.9531 a 9.4025,9.4025 0 1 0 18.7608,0 z M 38,81 a 5,5 0 1 1 5,-5 5.0059,5.0059 0 0 1 -5,5 z"
       id="path12" />
    <path
       d="m 82,11 h -5 v 2 h 5 a 3.0088,3.0088 0 0 1 3,3 v 12 a 3.0088,3.0088 0 0 1 -3,3 H 42 a 5.0018,5.0018 0 0 0 -5,5 v 7 h 2 v -7 a 3.0088,3.0088 0 0 1 3,-3 h 40 a 5.0018,5.0018 0 0 0 5,-5 V 16 a 5.0018,5.0018 0 0 0 -5,-5 z"
       id="path14" />
  </g>
</svg>
