<?xml version="1.0" encoding="UTF-8" standalone="no"?>
<svg
   enable-background="new 0 0 144.083 144"
   height="115.67001"
   id="Facebook"
   version="1.1"
   viewBox="0 0 115.66801 115.67001"
   width="115.668"
   xml:space="preserve"
   sodipodi:docname="photoshop-icon.svg"
   inkscape:version="1.2.2 (732a01da63, 2022-12-09)"
   inkscape:export-filename="Photoshop.svg"
   inkscape:export-xdpi="96"
   inkscape:export-ydpi="96"
   xmlns:inkscape="http://www.inkscape.org/namespaces/inkscape"
   xmlns:sodipodi="http://sodipodi.sourceforge.net/DTD/sodipodi-0.dtd"
   xmlns="http://www.w3.org/2000/svg"
   xmlns:svg="http://www.w3.org/2000/svg"><defs
     id="defs421" /><sodipodi:namedview
     id="namedview419"
     pagecolor="#ffffff"
     bordercolor="#000000"
     borderopacity="0.25"
     inkscape:showpageshadow="2"
     inkscape:pageopacity="0.0"
     inkscape:pagecheckerboard="0"
     inkscape:deskcolor="#d1d1d1"
     showgrid="false"
     inkscape:zoom="2.8263889"
     inkscape:cx="57.493857"
     inkscape:cy="108.97297"
     inkscape:window-width="1920"
     inkscape:window-height="1001"
     inkscape:window-x="-9"
     inkscape:window-y="-9"
     inkscape:window-maximized="1"
     inkscape:current-layer="Facebook" /><path
     id="path2021"
     style="stroke-width:1.0051"
     d="M 115.668,57.834999 A 57.834,57.834999 0 0 1 57.834,115.67 57.834,57.834999 0 0 1 0,57.834999 57.834,57.834999 0 0 1 57.834,0 57.834,57.834999 0 0 1 115.668,57.834999 Z" /><g
     aria-label="Ps"
     id="text648"
     style="font-size:58.6667px;font-family:Inter;-inkscape-font-specification:'Inter, Normal';fill:#ffffff"
     transform="matrix(1.09359,0,0,1.09359,-22.283471,-21.099853)"><path
       d="M 45.296976,91.315804 V 48.649114 H 59.71365 q 5.020836,0 8.208338,1.812501 3.208335,1.791667 4.750003,4.854169 1.541667,3.062502 1.541667,6.833337 0,3.770835 -1.541667,6.85417 -1.520835,3.083335 -4.708336,4.91667 -3.187502,1.812501 -8.166671,1.812501 H 49.463645 v -4.583336 h 10.166672 q 3.437502,0 5.520836,-1.187501 2.083335,-1.1875 3.020835,-3.208335 0.958334,-2.041668 0.958334,-4.604169 0,-2.562501 -0.958334,-4.583336 -0.9375,-2.020834 -3.041668,-3.166668 -2.104168,-1.166667 -5.583337,-1.166667 h -9.083338 v 38.083354 z"
       id="path2027" /><path
       d="m 100.73344,66.482457 -4.416672,1.25 q -0.416667,-1.104167 -1.229167,-2.145834 -0.791667,-1.062501 -2.166668,-1.750001 -1.375001,-0.6875 -3.520835,-0.6875 -2.937502,0 -4.895836,1.354167 -1.937501,1.333334 -1.937501,3.395835 0,1.833334 1.333334,2.895835 1.333334,1.062501 4.166669,1.770834 l 4.750002,1.166668 q 4.291672,1.041667 6.395832,3.187501 2.104172,2.125002 2.104172,5.47917 0,2.750002 -1.583329,4.916669 -1.562503,2.166668 -4.375007,3.416669 -2.812501,1.250001 -6.54167,1.250001 -4.895836,0 -8.104171,-2.125002 -3.208335,-2.125001 -4.062502,-6.208336 l 4.666669,-1.166668 q 0.666667,2.583335 2.520835,3.875003 1.875001,1.291667 4.895836,1.291667 3.437501,0 5.458336,-1.458334 2.041671,-1.479168 2.041671,-3.541669 0,-1.666667 -1.166671,-2.791668 Q 93.9001,78.71163 91.483432,78.14913 l -5.333336,-1.250001 q -4.395836,-1.041667 -6.458337,-3.229168 -2.041668,-2.208335 -2.041668,-5.520837 0,-2.708334 1.520834,-4.791669 1.541668,-2.083334 4.187503,-3.270835 2.666668,-1.187501 6.04167,-1.187501 4.750002,0 7.45834,2.083335 2.729173,2.083334 3.875002,5.500003 z"
       id="path2024" /></g></svg>
