<?xml version="1.0" encoding="UTF-8" standalone="no"?>
<svg
   enable-background="new 0 0 144.083 144"
   height="31"
   id="Pinterest"
   version="1.1"
   viewBox="0 0 31.000003 31"
   width="31"
   xml:space="preserve"
   sodipodi:docname="pinterest-icon.svg"
   inkscape:version="1.2.2 (732a01da63, 2022-12-09)"
   xmlns:inkscape="http://www.inkscape.org/namespaces/inkscape"
   xmlns:sodipodi="http://sodipodi.sourceforge.net/DTD/sodipodi-0.dtd"
   xmlns="http://www.w3.org/2000/svg"
   xmlns:svg="http://www.w3.org/2000/svg"><defs
     id="defs2044" /><sodipodi:namedview
     id="namedview2042"
     pagecolor="#ffffff"
     bordercolor="#000000"
     borderopacity="0.25"
     inkscape:showpageshadow="2"
     inkscape:pageopacity="0.0"
     inkscape:pagecheckerboard="0"
     inkscape:deskcolor="#d1d1d1"
     showgrid="false"
     inkscape:zoom="5.6527778"
     inkscape:cx="18.309582"
     inkscape:cy="58.201474"
     inkscape:window-width="1920"
     inkscape:window-height="1001"
     inkscape:window-x="-9"
     inkscape:window-y="-9"
     inkscape:window-maximized="1"
     inkscape:current-layer="Pinterest" /><path
     d="M 15.499866,0 C 6.9393345,0 0,6.9398105 0,15.5 0,24.059921 6.9396025,31 15.499866,31 24.06013,31 31,24.059921 31,15.5 31,6.9398105 24.06013,0 15.499866,0 Z m 7.382356,13.715064 c -0.184391,2.205977 -1.798084,4.77993 -3.28876,5.515345 -1.491212,0.735416 -3.084804,0.735416 -4.003812,0.285965 0,0 -1.184876,-0.715046 -1.348095,-0.919536 -0.102112,0.08174 -0.429085,2.104134 -0.919276,3.370474 -0.490192,1.266339 -1.164239,2.512579 -2.124522,3.084509 -0.347074,-1.14386 -0.122481,-3.962773 0.551566,-6.454983 0.674584,-2.491943 0.939914,-3.65644 0.939914,-3.65644 0,0 -0.857902,-1.634315 -0.02037,-3.43158 0.837534,-1.7975323 2.410221,-1.389087 2.716825,-1.103122 0.306605,0.285965 0.857903,0.510556 0.408449,2.349094 -0.449454,1.838537 -1.205245,3.63607 -0.571935,4.616713 0.387811,0.551561 2.451226,1.000743 3.615197,-0.551561 0.939914,-1.572942 1.307892,-2.28772 1.34863,-4.759562 0,0 0.04395,-3.9657211 -3.49352,-4.2077328 -2.982156,-0.2044904 -4.359463,1.0696217 -5.269896,1.9607498 -0.960014,0.939638 -1.6747988,3.513055 -0.776159,4.943148 0.449454,0.633036 0.469823,1.000743 0.408449,1.368451 -0.06137,0.367707 -0.347342,0.919269 -0.347342,0.919269 0,0 -2.532702,-0.449183 -2.6551829,-3.554328 -0.1227479,-3.104878 1.3274583,-4.882042 2.6144459,-5.8624169 1.287256,-0.9803748 3.520321,-2.2333143 7.932582,-1.4161565 2.914081,0.7903568 4.752367,3.2959677 4.282812,7.5037004 z"
     id="path2039"
     style="stroke-width:0.26801" /></svg>
