<?xml version="1.0" encoding="UTF-8" standalone="no"?>
<svg
   width="31"
   height="31"
   viewBox="0 0 31 31"
   version="1.1"
   id="svg2169"
   sodipodi:docname="reddit-icon.svg"
   inkscape:version="1.2.2 (732a01da63, 2022-12-09)"
   xmlns:inkscape="http://www.inkscape.org/namespaces/inkscape"
   xmlns:sodipodi="http://sodipodi.sourceforge.net/DTD/sodipodi-0.dtd"
   xmlns="http://www.w3.org/2000/svg"
   xmlns:svg="http://www.w3.org/2000/svg">
  <defs
     id="defs2173" />
  <sodipodi:namedview
     id="namedview2171"
     pagecolor="#ffffff"
     bordercolor="#000000"
     borderopacity="0.25"
     inkscape:showpageshadow="2"
     inkscape:pageopacity="0.0"
     inkscape:pagecheckerboard="0"
     inkscape:deskcolor="#d1d1d1"
     showgrid="false"
     inkscape:zoom="25.4375"
     inkscape:cx="11.105651"
     inkscape:cy="15.528256"
     inkscape:window-width="1920"
     inkscape:window-height="1001"
     inkscape:window-x="-9"
     inkscape:window-y="-9"
     inkscape:window-maximized="1"
     inkscape:current-layer="svg2169" />
  <path
     d="m 12.094,18.594 c -0.863,0 -1.556,-0.694 -1.556,-1.538 0,-0.862 0.694,-1.556 1.556,-1.556 0.85,0 1.538,0.694 1.538,1.556 0,0.85 -0.694,1.538 -1.538,1.538 z M 31,15.5 C 31,24.063 24.062,31 15.5,31 6.938,31 0,24.062 0,15.5 0,6.937 6.938,0 15.5,0 24.062,0 31,6.938 31,15.5 Z m -8.269,-2.575 c -0.587,0 -1.106,0.244 -1.488,0.625 -1.4,-0.969 -3.287,-1.594 -5.381,-1.663 l 1.087,-4.894 3.463,0.781 c 0,0.85 0.694,1.538 1.537,1.538 0.863,0 1.556,-0.706 1.556,-1.556 0,-0.85 -0.694,-1.556 -1.556,-1.556 -0.606,0 -1.125,0.363 -1.381,0.863 l -3.825,-0.85 c -0.188,-0.05 -0.381,0.088 -0.431,0.275 l -1.194,5.4 c -2.075,0.088 -3.944,0.706 -5.344,1.675 -0.381,-0.4 -0.919,-0.637 -1.506,-0.637 -2.181,0 -2.894,2.931 -0.9,3.925 -0.069,0.313 -0.106,0.637 -0.106,0.969 0,3.287 3.7,5.95 8.25,5.95 4.569,0 8.269,-2.663 8.269,-5.95 0,-0.331 -0.038,-0.675 -0.119,-0.988 1.956,-1 1.237,-3.906 -0.931,-3.906 z m -4.306,7.263 c -1.137,1.137 -4.756,1.119 -5.85,0 -0.137,-0.137 -0.381,-0.137 -0.519,0 -0.156,0.156 -0.156,0.4 0,0.538 1.425,1.425 5.456,1.425 6.888,0 0.156,-0.138 0.156,-0.381 0,-0.538 -0.138,-0.137 -0.381,-0.137 -0.519,0 z M 18.906,15.5 c -0.85,0 -1.538,0.694 -1.538,1.556 0,0.85 0.694,1.538 1.538,1.538 0.863,0 1.556,-0.694 1.556,-1.538 0,-0.862 -0.688,-1.556 -1.556,-1.556 z"
     id="path2167" />
</svg>
