<?xml version="1.0" encoding="UTF-8" standalone="no"?>
<svg
   width="31"
   height="31"
   viewBox="0 0 31 31"
   version="1.1"
   id="svg2298"
   sodipodi:docname="telegram-icon.svg"
   inkscape:version="1.2.2 (732a01da63, 2022-12-09)"
   xmlns:inkscape="http://www.inkscape.org/namespaces/inkscape"
   xmlns:sodipodi="http://sodipodi.sourceforge.net/DTD/sodipodi-0.dtd"
   xmlns="http://www.w3.org/2000/svg"
   xmlns:svg="http://www.w3.org/2000/svg">
  <defs
     id="defs2302" />
  <sodipodi:namedview
     id="namedview2300"
     pagecolor="#ffffff"
     bordercolor="#000000"
     borderopacity="0.25"
     inkscape:showpageshadow="2"
     inkscape:pageopacity="0.0"
     inkscape:pagecheckerboard="0"
     inkscape:deskcolor="#d1d1d1"
     showgrid="false"
     inkscape:zoom="17.987029"
     inkscape:cx="19.097095"
     inkscape:cy="7.3942173"
     inkscape:window-width="1920"
     inkscape:window-height="1001"
     inkscape:window-x="-9"
     inkscape:window-y="-9"
     inkscape:window-maximized="1"
     inkscape:current-layer="svg2298" />
  <path
     d="M 15.5,0 C 6.937,0 0,6.938 0,15.5 0,24.062 6.938,31 15.5,31 24.063,31 31,24.062 31,15.5 31,6.938 24.062,0 15.5,0 Z m 7.613,10.619 -2.544,11.988 c -0.188,0.85 -0.694,1.056 -1.4,0.656 l -3.875,-2.856 -1.869,1.8 c -0.206,0.206 -0.381,0.381 -0.781,0.381 L 12.919,18.644 20.1,12.156 C 20.413,11.881 20.031,11.725 19.618,12 L 10.743,17.587 6.918,16.393 C 6.087,16.131 6.068,15.562 7.093,15.162 L 22.037,9.399 c 0.694,-0.25 1.3,0.169 1.075,1.219 z"
     id="path2296" />
</svg>
