<?xml version="1.0" standalone="no"?>
<!DOCTYPE svg PUBLIC "-//W3C//DTD SVG 20010904//EN"
 "http://www.w3.org/TR/2001/REC-SVG-20010904/DTD/svg10.dtd">
<svg version="1.0" xmlns="http://www.w3.org/2000/svg"
 width="260.000000pt" height="260.000000pt" viewBox="0 0 260.000000 260.000000"
 preserveAspectRatio="xMidYMid meet">
<metadata>
Created by potrace 1.14, written by Peter Selinger 2001-2017
</metadata>
<g transform="translate(0.000000,260.000000) scale(0.100000,-0.100000)"
fill="#000000" stroke="none">
<path d="M766 1848 l-168 -233 7 -180 c4 -99 10 -229 14 -289 l6 -110 287 -95
286 -95 174 48 c95 27 178 53 183 57 6 4 46 77 89 162 l80 153 -24 107 c-12
59 -26 107 -29 107 -12 0 -436 -134 -444 -140 -6 -5 78 -180 86 -180 1 0 37
11 79 24 l78 24 10 -37 c5 -20 12 -51 16 -67 l6 -31 -149 -30 -150 -29 -184
87 c-101 48 -184 91 -184 96 0 4 45 95 100 200 l100 192 46 -45 46 -45 153 45
c83 24 153 46 155 48 4 4 44 292 40 295 -2 4 -531 193 -537 193 -2 0 -80 -105
-172 -232z"/>
<path d="M1780 1513 c-41 -14 -76 -27 -78 -29 -4 -3 45 -184 52 -191 2 -3 14
-2 26 2 21 7 21 13 2 65 -3 8 9 3 27 -12 34 -29 43 -32 75 -19 16 6 14 11 -23
40 -42 34 -52 51 -27 51 8 0 17 4 20 8 10 16 18 112 10 111 -5 0 -43 -12 -84
-26z"/>
<path d="M1932 1353 c2 -10 10 -18 18 -18 8 0 16 8 18 18 2 12 -3 17 -18 17
-15 0 -20 -5 -18 -17z"/>
</g>
</svg>
